<?xml version="1.0" encoding="UTF-8" standalone="no"?>
<!-- Created with Inkscape (http://www.inkscape.org/) -->

<svg
   xmlns:dc="http://purl.org/dc/elements/1.1/"
   xmlns:cc="http://creativecommons.org/ns#"
   xmlns:rdf="http://www.w3.org/1999/02/22-rdf-syntax-ns#"
   xmlns:svg="http://www.w3.org/2000/svg"
   xmlns="http://www.w3.org/2000/svg"
   version="1.1"
   width="32"
   height="32"
   id="svg2">
  <metadata
     id="metadata8">
    <rdf:RDF>
      <cc:Work
         rdf:about="">
        <dc:format>image/svg+xml</dc:format>
        <dc:type
           rdf:resource="http://purl.org/dc/dcmitype/StillImage" />
        <dc:title></dc:title>
      </cc:Work>
    </rdf:RDF>
  </metadata>
  <defs
     id="defs6" />
  <g
     id="g3080">
    <path
       d="m 26.949153,22.186441 a 10.830508,10.016949 0 1 1 -21.6610165,0 10.830508,10.016949 0 1 1 21.6610165,0 z"
       transform="matrix(0.75114268,0,0,0.84768224,3.8417511,-0.1968811)"
       id="path3028"
       style="fill:#ff0000;stroke:#ff0000;stroke-width:0.5" />
    <path
       d="m 26.949153,22.186441 a 10.830508,10.016949 0 1 1 -21.6610165,0 10.830508,10.016949 0 1 1 21.6610165,0 z"
       transform="matrix(0.24172381,0,0,0.34764955,2.0867905,4.1513008)"
       id="path3028-4"
       style="fill:#ff0000;stroke:#ff0000;stroke-width:0.5" />
    <path
       d="m 26.949153,22.186441 a 10.830508,10.016949 0 1 1 -21.6610165,0 10.830508,10.016949 0 1 1 21.6610165,0 z"
       transform="matrix(0.2372868,0,0,0.32762935,8.260005,-1.1163871)"
       id="path3028-4-8"
       style="fill:#ff0000;stroke:#ff0000;stroke-width:0.5" />
    <path
       d="m 26.949153,22.186441 a 10.830508,10.016949 0 1 1 -21.6610165,0 10.830508,10.016949 0 1 1 21.6610165,0 z"
       transform="matrix(0.24192719,0,0,0.32756227,15.930971,-1.1148989)"
       id="path3028-4-89"
       style="fill:#ff0000;stroke:#ff0000;stroke-width:0.5" />
    <path
       d="m 26.949153,22.186441 a 10.830508,10.016949 0 1 1 -21.6610165,0 10.830508,10.016949 0 1 1 21.6610165,0 z"
       transform="matrix(0.2280755,0,0,0.32274269,22.510173,4.9411832)"
       id="path3028-4-5"
       style="fill:#ff0000;stroke:#ff0000;stroke-width:0.5" />
  </g>
</svg>
